<?xml version="1.0" encoding="UTF-8"?>
<svg id="Layer_1" xmlns="http://www.w3.org/2000/svg" version="1.1" viewBox="0 0 841.9 235.5">
  <!-- Generator: Adobe Illustrator 29.0.0, SVG Export Plug-In . SVG Version: 2.1.0 Build 186)  -->
  <defs>
    <style>
      .st0 {
        fill: #00aeef;
      }

      .st1 {
        fill: #27aae1;
      }

      .st2 {
        fill: #58595b;
      }
    </style>
  </defs>
  <g>
    <path class="st1" d="M88.9,180.7C39.9,180.7,0,140.8,0,91.8V0h91.8c49,0,88.9,39.9,88.9,88.9s-41.2,91.8-91.8,91.8h0ZM22.6,22.6v69.2c0,36.6,29.7,66.3,66.3,66.3s69.2-31,69.2-69.2S128.3,22.6,91.8,22.6H22.6Z"/>
    <path class="st2" d="M158.1,212.9h-15c-36.6,0-66.3-29.7-66.3-66.3s31-69.2,69.2-69.2,66.3,29.7,66.3,66.3v6.8h22.6v-6.8c0-49-39.9-88.9-88.9-88.9s-91.8,41.2-91.8,91.8,39.9,88.9,88.9,88.9h15v-22.6h0Z"/>
    <g>
      <path class="st2" d="M77.5,157.1c-8.4-1.5-16.4-4.5-23.4-8.9.2,9.5,1.8,18.7,4.8,27.3,8.5,3.1,17.7,4.8,27.2,5.1-4.3-7.1-7.2-15-8.6-23.5h0Z"/>
      <path class="st1" d="M157.2,78.4c8.4,1.5,16.4,4.5,23.4,8.9-.2-9.5-1.8-18.7-4.8-27.3-8.5-3.1-17.7-4.8-27.2-5.1,4.3,7.1,7.2,15,8.6,23.5h0Z"/>
    </g>
  </g>
  <g>
    <path class="st0" d="M259.4,32.1h24.4v40.5c4-6.9,10.6-9.7,17.7-9.7,15,0,20.9,11.4,20.9,29.7v36.3c0,21.6-3.6,37.1-23.2,37.1s-14.2-5.1-16.5-10.2c-.1,3.5-.4,6.3-.7,8.6h-22.9c.3-6,.2-17,.2-24.9V32.1h0ZM298.1,131.6v-35c0-7.5-.9-12.7-6.8-12.7s-7.5,4.5-7.5,13.2v34.9c0,9.2,2.3,12.7,7.2,12.7s7.1-3.3,7.1-13.2h0Z"/>
    <path class="st0" d="M334.6,164.4V32.1h24.4v132.3h-24.4Z"/>
    <path class="st0" d="M435.6,132.7c0,16.7,0,26.1.3,31.7h-23.5c-.4-2.3-.8-6.4-.8-8.7-4.2,8.1-11,10.3-18.9,10.3s-19.9-4.7-19.9-25.8v-75.8h24.4v70c0,7,2,10.5,6.7,10.5s7.3-3.5,7.3-13.1v-67.4h24.4v68.3h0Z"/>
    <path class="st0" d="M471.8,120.6v14.6c0,6.4,1.5,11.1,7,11.1s7-5,7-11.4v-2.2h23.6v1.4c0,13.4-4.1,31.9-30.5,31.9s-31.3-14.6-31.3-35.1v-33.9c0-16.4,7.6-34.1,31.4-34.1s30.7,12.6,30.7,34v23.8h-37.9ZM486.2,103.3v-9.8c0-7.7-1.7-11.2-7.1-11.2s-7.2,3.3-7.2,11.2v9.8h14.3Z"/>
    <path class="st2" d="M579.8,128.9v3.5c0,19-5.2,33.5-30,33.5s-29.3-13.9-29.3-35.7v-34.3c0-17.3,6.5-33,30.3-33s29.1,17.3,29.1,31v4.9h-23.4v-6c0-6.7-1-10.3-5.8-10.3s-5.9,3.7-5.9,10.2v43.5c0,5.8,1,10.1,5.9,10.1s5.8-4.2,5.8-10.8v-6.5h23.2Z"/>
    <path class="st2" d="M614.9,32.1v40c3.5-5.6,9.3-9.3,18.6-9.3,15.5,0,20.3,11.2,20.3,25.6v75.9h-24.5v-69.9c0-6-1.2-10.5-6.8-10.5s-7.5,3.3-7.5,12.8v67.6h-24.4V32.1h24.4Z"/>
    <path class="st2" d="M726.1,141.5c0,8.9.1,18.5.6,22.9h-22.7c-.6-1.6-1.3-5.8-1.5-7.4-3.8,6.2-9.5,8.8-17.1,8.8-15.3,0-21.3-14.1-21.3-29.3v-1.8c0-25.6,17.4-31.7,35.9-31.7h1.6v-11.6c0-6.7-1-9.8-5.5-9.8s-5.6,3.3-5.6,9.1v2.3h-23.5v-1.6c0-17.4,7.9-28.5,30.1-28.5s28.8,9.4,28.8,26.8v51.8h0ZM701.9,120h-2.3c-7.2,0-11.9,3.2-11.9,13.6v1.3c0,6.9,2.3,10.5,7,10.5s7.2-3.5,7.2-13.6v-11.7Z"/>
    <path class="st2" d="M740.3,64.4h24.4v100h-24.4v-100ZM740.4,32.1h24.4v22.1h-24.4v-22.1Z"/>
    <path class="st2" d="M778.8,94.3c0-17.9,0-26.3-.3-30h23.4c.4,2.6.8,6.1.8,8.5,2.8-4.8,8.2-10,18.7-10s20.4,8.6,20.4,26v75.5h-24.4v-70.4c0-6.8-2.1-10-6.6-10s-7.6,3.1-7.6,13v67.4h-24.4v-70h0Z"/>
  </g>
</svg>