<?xml version="1.0" encoding="UTF-8" standalone="no"?>
<svg
   version="1.1"
   viewBox="0 0 130931.83 51801.491"
   id="svg74"
   sodipodi:docname="Blue Chain logo.svg"
   width="130931.84"
   height="51801.492"
   xmlns:inkscape="http://www.inkscape.org/namespaces/inkscape"
   xmlns:sodipodi="http://sodipodi.sourceforge.net/DTD/sodipodi-0.dtd"
   xmlns="http://www.w3.org/2000/svg"
   xmlns:svg="http://www.w3.org/2000/svg">
  <sodipodi:namedview
     id="namedview74"
     pagecolor="#ffffff"
     bordercolor="#000000"
     borderopacity="0.25"
     inkscape:showpageshadow="2"
     inkscape:pageopacity="0.0"
     inkscape:pagecheckerboard="0"
     inkscape:deskcolor="#d1d1d1"
     showgrid="false">
    <inkscape:page
       x="0"
       y="0"
       width="130931.83"
       height="51801.492"
       id="page2"
       margin="0"
       bleed="0" />
  </sodipodi:namedview>
  <defs
     id="defs1">
    <style
       id="style1">
      .cls-1 {
        fill: #fff;
      }

      .cls-2 {
        fill: #58595b;
      }

      .cls-3 {
        fill: #27aae1;
      }

      .cls-4 {
        fill: #00aeef;
      }
    </style>
  </defs>
  <!-- Generator: Adobe Illustrator 28.7.1, SVG Export Plug-In . SVG Version: 1.2.0 Build 142)  -->
  <g
     id="g74"
     transform="translate(-98881.972,-261171.13)">
    <g
       id="Layer_1">
      <g
         id="g47"
         inkscape:export-filename="../Documents/bluechain/website/img/logo.svg"
         inkscape:export-xdpi="300"
         inkscape:export-ydpi="300">
        <path
           class="cls-3"
           d="m 189.34,357.43 c -12.81,0 -23.23,-10.42 -23.23,-23.23 v -23.98 h 23.98 c 12.81,0 23.23,10.42 23.23,23.23 0,12.81 -10.76,23.98 -23.98,23.98 z m -17.33,-41.3 v 18.07 c 0,9.55 7.77,17.32 17.32,17.32 9.55,0 18.07,-8.11 18.07,-18.07 0,-9.96 -7.77,-17.33 -17.32,-17.33 h -18.07 z"
           id="path43" />
        <path
           class="cls-2"
           d="m 207.41,365.85 h -3.93 c -9.55,0 -17.33,-7.77 -17.33,-17.33 0,-9.56 8.11,-18.07 18.07,-18.07 9.96,0 17.32,7.77 17.32,17.32 v 1.78 h 5.91 v -1.78 c 0,-12.81 -10.42,-23.23 -23.23,-23.23 -12.81,0 -23.98,10.76 -23.98,23.98 0,13.22 10.42,23.23 23.23,23.23 h 3.93 v -5.91 z"
           id="path44" />
        <g
           id="g46">
          <path
             class="cls-2"
             d="m 186.36,351.27 c -2.21,-0.38 -4.28,-1.18 -6.12,-2.32 0.04,2.49 0.48,4.88 1.25,7.13 2.23,0.8 4.62,1.27 7.1,1.34 -1.11,-1.85 -1.89,-3.93 -2.24,-6.15 z"
             id="path45" />
          <path
             class="cls-3"
             d="m 207.18,330.72 c 2.21,0.38 4.28,1.18 6.12,2.32 -0.04,-2.49 -0.48,-4.88 -1.25,-7.13 -2.23,-0.8 -4.62,-1.27 -7.1,-1.34 1.11,1.85 1.89,3.93 2.24,6.15 z"
             id="path46" />
        </g>
      </g>
      <g
         id="g55">
        <path
           class="cls-4"
           d="m 233.88,318.61 h 6.38 v 10.58 c 1.05,-1.81 2.77,-2.55 4.63,-2.55 3.92,0 5.47,2.98 5.47,7.77 v 9.49 c 0,5.63 -0.94,9.69 -6.07,9.69 -2.55,0 -3.71,-1.34 -4.3,-2.66 -0.03,0.91 -0.1,1.64 -0.18,2.25 h -5.98 c 0.08,-1.57 0.05,-4.43 0.05,-6.51 v -28.05 z m 10.11,26.01 v -9.15 c 0,-1.97 -0.23,-3.31 -1.77,-3.31 -1.54,0 -1.96,1.17 -1.96,3.46 v 9.13 c 0,2.41 0.61,3.31 1.88,3.31 1.09,0 1.85,-0.86 1.85,-3.44 z"
           id="path47" />
        <path
           class="cls-4"
           d="m 253.52,353.17 v -34.56 h 6.38 v 34.56 z"
           id="path48" />
        <path
           class="cls-4"
           d="m 279.91,344.88 c 0,4.35 0,6.82 0.07,8.28 h -6.13 c -0.12,-0.6 -0.2,-1.67 -0.22,-2.28 -1.1,2.11 -2.88,2.69 -4.95,2.69 -2.57,0 -5.19,-1.24 -5.19,-6.75 v -19.79 h 6.38 v 18.29 c 0,1.82 0.52,2.74 1.75,2.74 1.41,0 1.92,-0.92 1.92,-3.41 v -17.61 h 6.37 v 17.85 z"
           id="path49" />
        <path
           class="cls-4"
           d="m 289.37,341.74 v 3.81 c 0,1.68 0.39,2.9 1.83,2.9 1.55,0 1.82,-1.32 1.82,-2.98 v -0.59 h 6.17 v 0.36 c 0,3.5 -1.07,8.34 -7.97,8.34 -6.9,0 -8.17,-3.82 -8.17,-9.18 v -8.85 c 0,-4.29 1.98,-8.91 8.19,-8.91 5.5,0 8.03,3.28 8.03,8.87 v 6.22 h -9.91 z m 3.76,-4.53 v -2.57 c 0,-2.02 -0.44,-2.94 -1.85,-2.94 -1.21,0 -1.88,0.87 -1.88,2.94 v 2.57 z"
           id="path50" />
        <path
           class="cls-2"
           d="m 317.59,343.91 v 0.92 c 0,4.97 -1.37,8.75 -7.84,8.75 -6.13,0 -7.64,-3.63 -7.64,-9.34 v -8.97 c 0,-4.52 1.71,-8.63 7.93,-8.63 6.75,0 7.61,4.52 7.61,8.1 v 1.29 h -6.12 v -1.58 c 0,-1.75 -0.26,-2.69 -1.51,-2.69 -1.25,0 -1.54,0.97 -1.54,2.66 v 11.37 c 0,1.52 0.26,2.64 1.54,2.64 1.28,0 1.51,-1.1 1.51,-2.83 v -1.69 h 6.07 z"
           id="path51" />
        <path
           class="cls-2"
           d="m 326.75,318.61 v 10.46 c 0.91,-1.45 2.44,-2.43 4.85,-2.43 4.04,0 5.3,2.92 5.3,6.68 v 19.84 h -6.41 v -18.27 c 0,-1.57 -0.31,-2.74 -1.77,-2.74 -1.46,0 -1.97,0.86 -1.97,3.35 v 17.66 h -6.38 V 318.6 h 6.38 z"
           id="path52" />
        <path
           class="cls-2"
           d="m 355.81,347.19 c 0,2.34 0.04,4.83 0.15,5.98 h -5.93 c -0.15,-0.43 -0.33,-1.52 -0.38,-1.92 -1,1.63 -2.49,2.3 -4.46,2.3 -3.99,0 -5.58,-3.67 -5.58,-7.66 v -0.48 c 0,-6.69 4.53,-8.29 9.39,-8.29 h 0.43 v -3.04 c 0,-1.76 -0.25,-2.56 -1.43,-2.56 -1.18,0 -1.46,0.86 -1.46,2.39 v 0.61 h -6.14 v -0.4 c 0,-4.54 2.07,-7.46 7.87,-7.46 5.16,0 7.54,2.45 7.54,7.01 v 13.53 z m -6.31,-5.62 h -0.6 c -1.87,0 -3.1,0.83 -3.1,3.56 v 0.33 c 0,1.81 0.59,2.74 1.82,2.74 1.29,0 1.88,-0.9 1.88,-3.56 v -3.06 z"
           id="path53" />
        <path
           class="cls-2"
           d="m 359.51,327.04 h 6.37 v 26.13 h -6.37 z m 0.04,-8.43 h 6.37 v 5.77 h -6.37 z"
           id="path54" />
        <path
           class="cls-2"
           d="m 369.58,334.87 c 0,-4.67 -0.02,-6.86 -0.07,-7.83 h 6.11 c 0.12,0.68 0.2,1.58 0.22,2.21 0.74,-1.25 2.15,-2.61 4.88,-2.61 3.5,0 5.34,2.25 5.34,6.79 v 19.73 h -6.38 v -18.39 c 0,-1.78 -0.55,-2.61 -1.74,-2.61 -1.44,0 -2,0.8 -2,3.39 v 17.62 h -6.37 v -18.3 z"
           id="path55" />
      </g>
    </g>
  </g>
</svg>
